<svg xmlns="http://www.w3.org/2000/svg" viewBox="0 0 900 720" role="img" aria-labelledby="title desc">
  <title id="title">Kids party balloons</title>
  <desc id="desc">FPO illustration of colorful party balloons and hand drawn confetti.</desc>
  <defs>
    <radialGradient id="bg" cx="42%" cy="16%" r="88%"><stop offset="0" stop-color="#fffbea"/><stop offset="1" stop-color="#dff8ff"/></radialGradient>
    <linearGradient id="teal" x1="0" x2="1"><stop offset="0" stop-color="#73e0e0"/><stop offset="1" stop-color="#0c8b94"/></linearGradient>
    <linearGradient id="orange" x1="0" x2="1"><stop offset="0" stop-color="#ffb356"/><stop offset="1" stop-color="#f05d14"/></linearGradient>
    <linearGradient id="purple" x1="0" x2="1"><stop offset="0" stop-color="#d8a7ff"/><stop offset="1" stop-color="#7435b6"/></linearGradient>
    <filter id="shadow" x="-20%" y="-20%" width="140%" height="150%"><feDropShadow dx="0" dy="18" stdDeviation="16" flood-color="#18244a" flood-opacity=".2"/></filter>
  </defs>
  <rect width="900" height="720" fill="url(#bg)"/>
  <g fill="none" stroke="#0b2254" stroke-width="5" stroke-linecap="round" opacity=".32">
    <path d="M96 597c128-40 262-35 412-4 117 25 217 12 302-33"/>
    <path d="M142 152l-28-42M202 128l8-57M267 154l38-39"/>
  </g>
  <g filter="url(#shadow)" stroke-width="7" stroke-linecap="round" stroke-linejoin="round">
    <ellipse cx="285" cy="267" rx="83" ry="119" fill="url(#orange)" stroke="#cd5611"/>
    <ellipse cx="457" cy="222" rx="91" ry="131" fill="url(#teal)" stroke="#0a7b85"/>
    <ellipse cx="616" cy="286" rx="82" ry="119" fill="url(#purple)" stroke="#622999"/>
    <path d="M285 388c-36 73-42 136-18 191M457 354c-3 90 16 153 55 191M616 408c-29 52-31 110-3 166" fill="none" stroke="#0b2254" stroke-width="5"/>
    <path d="M225 536c49 60 109 71 171 17 53-45 97-47 145-2 59 56 110 40 154-21" fill="none" stroke="#ed6d1b" stroke-width="11"/>
  </g>
  <g fill="#09245a" font-family="Verdana, sans-serif" font-size="34" font-weight="800">
    <text x="64" y="96">Birthday Brights</text>
  </g>
</svg>
