<svg xmlns="http://www.w3.org/2000/svg" viewBox="0 0 900 720" role="img" aria-labelledby="title desc">
  <title id="title">Blue balloon dog</title>
  <desc id="desc">FPO illustration of a blue balloon dog on a warm party backdrop.</desc>
  <defs>
    <radialGradient id="bg" cx="30%" cy="20%" r="85%"><stop offset="0" stop-color="#fff9e9"/><stop offset="1" stop-color="#baf0f5"/></radialGradient>
    <linearGradient id="blue" x1="0" x2="1"><stop offset="0" stop-color="#69d8ff"/><stop offset=".55" stop-color="#0f8dd7"/><stop offset="1" stop-color="#065a9c"/></linearGradient>
    <filter id="shadow" x="-20%" y="-20%" width="140%" height="150%"><feDropShadow dx="0" dy="18" stdDeviation="18" flood-color="#052a45" flood-opacity=".25"/></filter>
  </defs>
  <rect width="900" height="720" fill="url(#bg)"/>
  <path d="M82 586c152-38 294-28 430-1 118 23 207 15 308-25" fill="none" stroke="#0b2254" stroke-width="5" stroke-linecap="round" stroke-dasharray="10 17" opacity=".35"/>
  <g filter="url(#shadow)" stroke="#044f85" stroke-width="8" stroke-linecap="round" stroke-linejoin="round">
    <ellipse cx="230" cy="378" rx="63" ry="96" transform="rotate(-23 230 378)" fill="url(#blue)"/>
    <ellipse cx="354" cy="383" rx="160" ry="60" fill="url(#blue)"/>
    <ellipse cx="517" cy="348" rx="86" ry="52" transform="rotate(-18 517 348)" fill="url(#blue)"/>
    <ellipse cx="584" cy="299" rx="48" ry="69" transform="rotate(23 584 299)" fill="url(#blue)"/>
    <ellipse cx="306" cy="511" rx="44" ry="109" fill="url(#blue)"/>
    <ellipse cx="454" cy="512" rx="44" ry="109" fill="url(#blue)"/>
    <circle cx="676" cy="287" r="14" fill="#053969"/>
  </g>
  <g fill="#fff" opacity=".5">
    <ellipse cx="188" cy="333" rx="15" ry="45" transform="rotate(-22 188 333)"/>
    <ellipse cx="314" cy="352" rx="24" ry="10"/>
    <ellipse cx="541" cy="326" rx="22" ry="9" transform="rotate(-16 541 326)"/>
  </g>
  <text x="64" y="96" fill="#09245a" font-family="Verdana, sans-serif" font-size="42" font-weight="800">Classic Dog</text>
</svg>
