<svg xmlns="http://www.w3.org/2000/svg" viewBox="0 0 900 720" role="img" aria-labelledby="title desc">
  <title id="title">Yellow balloon giraffe</title>
  <desc id="desc">FPO illustration of a yellow balloon giraffe with party confetti.</desc>
  <defs>
    <radialGradient id="bg" cx="55%" cy="18%" r="90%"><stop offset="0" stop-color="#fff7cc"/><stop offset="1" stop-color="#ecfbff"/></radialGradient>
    <linearGradient id="yellow" x1="0" x2="1"><stop offset="0" stop-color="#ffe36b"/><stop offset=".52" stop-color="#ffc318"/><stop offset="1" stop-color="#e68b00"/></linearGradient>
    <filter id="shadow" x="-20%" y="-20%" width="140%" height="150%"><feDropShadow dx="0" dy="18" stdDeviation="18" flood-color="#5a3300" flood-opacity=".24"/></filter>
  </defs>
  <rect width="900" height="720" fill="url(#bg)"/>
  <g fill="none" stroke="#0a2458" stroke-width="4" stroke-linecap="round" opacity=".35">
    <path d="M100 565c100-48 228-55 376-22 137 30 245 17 334-35"/>
    <path d="M114 157l-32-20M151 126l-3-45M195 151l32-30"/>
  </g>
  <g filter="url(#shadow)" stroke="#9f6200" stroke-width="8" stroke-linecap="round" stroke-linejoin="round">
    <ellipse cx="410" cy="420" rx="128" ry="58" fill="url(#yellow)"/>
    <ellipse cx="294" cy="526" rx="38" ry="100" fill="url(#yellow)"/>
    <ellipse cx="497" cy="526" rx="38" ry="100" fill="url(#yellow)"/>
    <ellipse cx="520" cy="286" rx="50" ry="172" transform="rotate(-8 520 286)" fill="url(#yellow)"/>
    <ellipse cx="548" cy="117" rx="48" ry="80" transform="rotate(20 548 117)" fill="url(#yellow)"/>
    <ellipse cx="504" cy="67" rx="17" ry="44" transform="rotate(-15 504 67)" fill="url(#yellow)"/>
    <ellipse cx="598" cy="69" rx="17" ry="44" transform="rotate(15 598 69)" fill="url(#yellow)"/>
    <circle cx="597" cy="116" r="12" fill="#1d2440"/>
  </g>
  <g fill="#714100" opacity=".72">
    <circle cx="380" cy="397" r="17"/><circle cx="451" cy="435" r="14"/><circle cx="502" cy="279" r="15"/><circle cx="527" cy="209" r="13"/><circle cx="532" cy="144" r="12"/>
  </g>
  <text x="64" y="96" fill="#09245a" font-family="Verdana, sans-serif" font-size="42" font-weight="800">Party Giraffe</text>
</svg>
