<svg xmlns="http://www.w3.org/2000/svg" viewBox="0 0 900 720" role="img" aria-labelledby="title desc">
  <title id="title">Pink balloon poodle</title>
  <desc id="desc">FPO illustration of a pink balloon poodle on a party backdrop.</desc>
  <defs>
    <radialGradient id="bg" cx="38%" cy="18%" r="90%"><stop offset="0" stop-color="#fff1fa"/><stop offset="1" stop-color="#fff5db"/></radialGradient>
    <linearGradient id="pink" x1="0" x2="1"><stop offset="0" stop-color="#ffaee4"/><stop offset=".55" stop-color="#f55bad"/><stop offset="1" stop-color="#aa1d70"/></linearGradient>
    <filter id="shadow" x="-20%" y="-20%" width="140%" height="150%"><feDropShadow dx="0" dy="18" stdDeviation="18" flood-color="#4a1236" flood-opacity=".22"/></filter>
  </defs>
  <rect width="900" height="720" fill="url(#bg)"/>
  <path d="M86 590c166-39 301-31 442 2 103 24 192 13 288-36" fill="none" stroke="#0b2254" stroke-width="5" stroke-linecap="round" stroke-dasharray="10 16" opacity=".31"/>
  <g filter="url(#shadow)" stroke="#a51c6b" stroke-width="8" stroke-linecap="round" stroke-linejoin="round">
    <ellipse cx="360" cy="405" rx="127" ry="52" fill="url(#pink)"/>
    <circle cx="233" cy="374" r="58" fill="url(#pink)"/>
    <ellipse cx="165" cy="350" rx="45" ry="70" transform="rotate(-24 165 350)" fill="url(#pink)"/>
    <ellipse cx="514" cy="349" rx="82" ry="46" transform="rotate(-14 514 349)" fill="url(#pink)"/>
    <circle cx="606" cy="318" r="54" fill="url(#pink)"/>
    <ellipse cx="681" cy="322" rx="52" ry="31" fill="url(#pink)"/>
    <ellipse cx="296" cy="521" rx="38" ry="92" fill="url(#pink)"/>
    <ellipse cx="459" cy="521" rx="38" ry="92" fill="url(#pink)"/>
    <circle cx="290" cy="607" r="39" fill="url(#pink)"/>
    <circle cx="458" cy="607" r="39" fill="url(#pink)"/>
    <circle cx="703" cy="313" r="10" fill="#241135"/>
  </g>
  <g fill="#fff" opacity=".42">
    <ellipse cx="210" cy="338" rx="15" ry="35" transform="rotate(-25 210 338)"/>
    <ellipse cx="346" cy="382" rx="30" ry="10"/>
    <ellipse cx="599" cy="297" rx="18" ry="8"/>
  </g>
  <text x="64" y="96" fill="#09245a" font-family="Verdana, sans-serif" font-size="42" font-weight="800">Pink Poodle</text>
</svg>
