<svg xmlns="http://www.w3.org/2000/svg" viewBox="0 0 900 720" role="img" aria-labelledby="title desc">
  <title id="title">Red balloon sword</title>
  <desc id="desc">FPO illustration of a red balloon sword on a blue sketched backdrop.</desc>
  <defs>
    <radialGradient id="bg" cx="45%" cy="18%" r="88%"><stop offset="0" stop-color="#fff4ed"/><stop offset="1" stop-color="#e8f7ff"/></radialGradient>
    <linearGradient id="red" x1="0" x2="1"><stop offset="0" stop-color="#ff8277"/><stop offset=".5" stop-color="#ee251c"/><stop offset="1" stop-color="#9a0907"/></linearGradient>
    <filter id="shadow" x="-20%" y="-20%" width="140%" height="150%"><feDropShadow dx="0" dy="18" stdDeviation="18" flood-color="#4a0a0a" flood-opacity=".22"/></filter>
  </defs>
  <rect width="900" height="720" fill="url(#bg)"/>
  <g stroke="#0b2254" stroke-width="5" stroke-linecap="round" opacity=".34" fill="none">
    <path d="M95 582c130-50 301-38 459 2 100 25 176 17 253-25"/>
    <path d="M148 190l-46-21M177 143l4-61M224 183l48-25"/>
  </g>
  <g filter="url(#shadow)" stroke="#960f0a" stroke-width="8" stroke-linecap="round" stroke-linejoin="round" transform="rotate(-17 462 362)">
    <ellipse cx="457" cy="280" rx="48" ry="250" fill="url(#red)"/>
    <ellipse cx="457" cy="526" rx="46" ry="82" fill="url(#red)"/>
    <ellipse cx="351" cy="511" rx="93" ry="43" fill="url(#red)"/>
    <ellipse cx="563" cy="511" rx="93" ry="43" fill="url(#red)"/>
    <circle cx="457" cy="508" r="53" fill="url(#red)"/>
  </g>
  <ellipse cx="424" cy="187" rx="16" ry="92" transform="rotate(-17 424 187)" fill="#fff" opacity=".38"/>
  <text x="64" y="96" fill="#09245a" font-family="Verdana, sans-serif" font-size="42" font-weight="800">Hero Sword</text>
</svg>
